<svg id="Layer_1" data-name="Layer 1" xmlns="http://www.w3.org/2000/svg" viewBox="0 0 9.66 8.95"><defs><style>.cls-1{fill:#fff;}</style></defs><path class="cls-1" d="M157.52,331.33h0c0-1,0-1.94,0-2.91a1.39,1.39,0,0,0-1-1.46,3.13,3.13,0,0,0-.81-.06,1.4,1.4,0,0,0-1.53,1.52c0,2,0,3.91,0,5.86a1.4,1.4,0,0,0,.59,1.25,2.06,2.06,0,0,0,2,.09,1.48,1.48,0,0,0,.77-1.47Zm3.52-.75c0-.86,0-1.66,0-2.47a1.16,1.16,0,0,0-1-1.17,3.69,3.69,0,0,0-.88,0,1.3,1.3,0,0,0-1.39,1.46q0,3,0,6.06a1.28,1.28,0,0,0,1.22,1.37,3.66,3.66,0,0,0,.81,0,1.21,1.21,0,0,0,1.16-1.14c.07-.64,0-1.3,0-1.95,0-.31,0-.61,0-.91h-1.41v.39c0,.68,0,1.35,0,2,0,.18,0,.39-.3.29a.38.38,0,0,1,0-.13v-6c0-.09.09-.18.13-.27l.11,0a1.12,1.12,0,0,1,.1.31,2.54,2.54,0,0,1,0,.39v1.78ZM151.61,327v8.71H154v-1.34H153V327Z" transform="translate(-151.61 -326.89)"/><path d="M157.52,331.33v2.82a1.48,1.48,0,0,1-.77,1.47,2.06,2.06,0,0,1-2-.09,1.4,1.4,0,0,1-.59-1.25c0-1.95,0-3.9,0-5.86a1.4,1.4,0,0,1,1.53-1.52,3.13,3.13,0,0,1,.81.06,1.39,1.39,0,0,1,1,1.46c0,1,0,1.94,0,2.91Zm-1.79,3.19h.17c0-.11.1-.21.13-.32a2.16,2.16,0,0,0,0-.36V328.6c0-.18.05-.39-.29-.45a1.66,1.66,0,0,0-.09.37v5.62A1.72,1.72,0,0,0,155.73,334.52Z" transform="translate(-151.61 -326.89)"/><path d="M161.26,330.59h-1.41v-1.77a2.67,2.67,0,0,0,0-.4,1.39,1.39,0,0,0-.1-.31h-.11c0,.08-.13.17-.13.26v6a.51.51,0,0,0,0,.14c.3.09.3-.11.3-.3,0-.67,0-1.35,0-2v-.39h1.41c0,.31,0,.61,0,.91,0,.65,0,1.31,0,2a1.2,1.2,0,0,1-1.16,1.13,2.75,2.75,0,0,1-.81,0,1.27,1.27,0,0,1-1.22-1.37c0-2,0-4,0-6.05a1.29,1.29,0,0,1,1.39-1.46,3.23,3.23,0,0,1,.88,0,1.15,1.15,0,0,1,1,1.17C161.28,328.93,161.26,329.74,161.26,330.59Z" transform="translate(-151.61 -326.89)"/><path d="M151.61,327H153v7.37H154v1.34h-2.34Z" transform="translate(-151.61 -326.89)"/><path class="cls-1" d="M155.73,334.52a1.72,1.72,0,0,1-.08-.38v-5.62a1.66,1.66,0,0,1,.09-.37c.34.06.29.27.29.45v5.25a2.16,2.16,0,0,1,0,.36c0,.11-.09.21-.13.32Z" transform="translate(-151.61 -326.89)"/></svg>