<?xml version="1.0" encoding="utf-8"?>
<!-- Generator: Adobe Illustrator 24.2.1, SVG Export Plug-In . SVG Version: 6.00 Build 0)  -->
<svg version="1.1" id="Layer_1" xmlns="http://www.w3.org/2000/svg" xmlns:xlink="http://www.w3.org/1999/xlink" x="0px" y="0px"
	 viewBox="0 0 23.4 10.4" style="enable-background:new 0 0 23.4 10.4;" xml:space="preserve">
<style type="text/css">
	.st0{fill:#272828;}
</style>
<g>
	<path class="st0" d="M22.3,6c-0.5-0.7-0.9-0.7-1.4,0c-0.1,0.1-0.1,0.4-0.4,0.3c-0.3-0.4-0.6-0.9-0.7-1.5c-0.2-0.6-0.2-1.5-1-1.4
		c-0.8,0.1-0.7,1-0.8,1.6c-0.1,1.1-0.4,2.1-0.8,3.2C17,7.1,16.9,6,16.9,4.9c-0.2-1.3-0.3-2.5-0.5-3.7c0-0.3-0.1-0.5-0.4-0.5
		c-0.3,0-0.4,0.3-0.4,0.5c-0.1,0.3-0.1,0.5-0.1,0.8c-0.1,0.9-0.1,1.8-0.2,2.7c0,0.4-0.1,0.7-0.6,0.8c0,0,0,0,0,0
		c-0.4,0.1-0.8-0.1-1-0.5c-0.2-0.4-0.4-0.8-0.8-1C11.4,3.1,10.3,2,8.9,1C8.4,0.7,7.8,0.4,7.2,0.2c-3-0.9-6.2,0.9-7,3.9
		C-0.1,4.7,0,5.4,0.4,6c0.3-2,0.9-3.5,2.4-4.5c1.5-1,3.9-1.1,4.9-0.3c-0.4,0-0.8,0-1.2,0.1C4,1.9,2.4,4.4,3,6.9
		c0.5,2.3,2.8,3.8,5.1,3.3c1-0.4,2-1,2.8-1.7c0.4-0.3,0.7-0.6,1.1-0.9c1-0.7,0.9-1.8,0.8-2.9C13,4.8,13,5,13.1,5.2
		C13.4,5.8,14,6.1,14.6,6c0.6-0.1,1.1-0.7,1-1.4c0-0.8,0.1-1.5,0.2-2.3c0.2,0.6,0.4,1.3,0.5,1.9c0.2,1.3,0.4,2.7,0.5,4
		c0,0.3,0,0.5,0.4,0.5c0.4,0,0.5-0.3,0.5-0.5c0.2-0.6,0.2-1.2,0.4-1.8c0.1-0.9,0.3-1.8,0.7-2.7c0.2,0.3,0.4,0.6,0.4,1
		c0.1,0.6,0.3,1.1,0.6,1.6c0.3,0.5,0.7,0.7,1.1,0.1c0.4-0.6,0.6-0.6,1.1,0s1,0.5,1.2-0.4C22.9,6.7,22.6,6.5,22.3,6z M4.4,8.6
		C3,7,3,4.6,4.4,3c1.2-1.4,3.3-1.7,5-0.8C7.5,2.3,6,3.6,5.8,5.4C5.6,7.3,6.6,8.6,8.7,9.3C7.2,10.2,5.4,9.9,4.4,8.6z M8.5,8.7
		C6.9,8.4,5.9,6.8,6.2,5.2C6.5,3.7,8,2.6,9.5,2.8c0.5,0,0.6,0.3,0.8,0.7c-1.9,1.2-2,3-0.2,4.5C9.8,8.7,9.1,9,8.5,8.7z M10.4,7.6
		C9.7,7.3,9.3,6.7,9.3,5.9c0-0.8,0.5-1.5,1.2-1.8C11,5.2,10.9,6.5,10.4,7.6z M12.1,6.9V4.7C12.3,5.4,12.3,6.1,12.1,6.9z"/>
</g>
</svg>
